<?xml version="1.0" encoding="UTF-8" standalone="no"?>
<svg
   xmlns:dc="http://purl.org/dc/elements/1.1/"
   xmlns:cc="http://creativecommons.org/ns#"
   xmlns:rdf="http://www.w3.org/1999/02/22-rdf-syntax-ns#"
   xmlns:svg="http://www.w3.org/2000/svg"
   xmlns="http://www.w3.org/2000/svg"
   xmlns:sodipodi="http://sodipodi.sourceforge.net/DTD/sodipodi-0.dtd"
   xmlns:inkscape="http://www.inkscape.org/namespaces/inkscape"
   version="1.1"
   x="0px"
   y="0px"
   viewBox="0 0 1000 1000"
   enable-background="new 0 0 1000 1000"
   xml:space="preserve"
   id="svg30"
   sodipodi:docname="dusk.svg"
   inkscape:version="1.0.2 (e86c870879, 2021-01-15, custom)"><defs
   id="defs34" /><sodipodi:namedview
   pagecolor="#ffffff"
   bordercolor="#666666"
   borderopacity="1"
   objecttolerance="10"
   gridtolerance="10"
   guidetolerance="10"
   inkscape:pageopacity="0"
   inkscape:pageshadow="2"
   inkscape:window-width="1920"
   inkscape:window-height="1017"
   id="namedview32"
   showgrid="false"
   inkscape:zoom="0.60104076"
   inkscape:cx="506.33503"
   inkscape:cy="432.75121"
   inkscape:window-x="1912"
   inkscape:window-y="49"
   inkscape:window-maximized="1"
   inkscape:current-layer="svg30"
   inkscape:document-rotation="0" />
<metadata
   id="metadata2"> Svg Vector Icons : http://www.onlinewebfonts.com/icon <rdf:RDF><cc:Work
     rdf:about=""><dc:format>image/svg+xml</dc:format><dc:type
       rdf:resource="http://purl.org/dc/dcmitype/StillImage" /></cc:Work></rdf:RDF></metadata>
<g
   id="g28"
   style="fill:#000000;fill-opacity:1"><g
     transform="translate(0.000000,511.000000) scale(0.100000,-0.100000)"
     id="g26"
     style="fill:#000000;fill-opacity:1"><path
       d="M4861.8,3390.4v-813.3h135.6h135.6v813.3v813.3h-135.6h-135.6V3390.4z"
       id="path4"
       style="fill:#000000;fill-opacity:1" /><path
       d="M1719.6,3013.6c-65.1-54.2-86.8-86.8-70.5-113.9c48.8-78.6,992.3-1190.2,1011.2-1190.2c10.9,0,62.4,35.2,113.9,78.6c89.5,73.2,92.2,81.3,51.5,127.4c-24.4,29.8-254.8,303.6-512.4,615.4c-257.5,309.1-477.2,561.2-485.3,561.2C1819.9,3092.2,1771.2,3057,1719.6,3013.6z"
       id="path6"
       style="fill:#000000;fill-opacity:1" /><path
       d="M7681.3,2531c-257.5-311.8-488-585.6-512.4-615.4c-40.7-46.1-37.9-54.2,51.5-127.4c51.5-43.4,103-78.6,113.9-78.6c21.7,0,995,1152.2,1013.9,1203.7c10.8,27.1-146.4,178.9-187.1,178.9C8155.8,3092.2,7938.9,2840.1,7681.3,2531z"
       id="path8"
       style="fill:#000000;fill-opacity:1" /><path
       d="M4658.5,1733.9c-390.4-48.8-862.1-235.9-1192.9-471.7c-208.8-151.8-517.8-469-661.5-680.5C2655,359.4,2519.4,61.2,2448.9-201.8c-78.6-290.1-103-864.8-46.1-1152.2c21.7-111.1,38-203.3,38-203.3c-620.8-154.5-1032.9-257.6-1038.3-265.7c-5.4-5.4,5.4-62.3,24.4-130.1c27.1-92.2,48.8-119.3,89.5-113.9c27.1,0,244,54.2,479.9,113.9c1011.2,260.3,2144.5,379.6,3340.1,344.3c1019.4-27.1,1854.4-135.6,2670.4-347c230.4-59.6,444.6-111.1,471.7-111.1c40.7-5.4,62.4,21.7,89.5,113.9c19,67.8,29.8,124.7,24.4,130.1c-5.4,8.1-417.5,111.1-1038.3,265.7c0,0,16.3,92.2,38,203.3c56.9,287.4,32.5,862.1-46.1,1152.2c-119.3,439.2-319.9,786.2-650.7,1135.9c-433.8,452.8-970.6,723.9-1586,799.8C5035.3,1766.5,4932.3,1766.5,4658.5,1733.9z"
       id="path10"
       style="fill:#000000;fill-opacity:1" /><path
       d="M130.9,42.2c-8.1-38-19-97.6-27.1-132.9c-10.8-51.5,0-67.8,48.8-78.6c225-51.5,1380-238.6,1393.5-227.7c24.4,27.1,43.4,263,21.7,263c-13.6,0-330.8,54.2-710.3,122C480.7,55.8,166.2,110,158.1,110C152.6,110,139.1,80.2,130.9,42.2z"
       id="path12"
       style="fill:#000000;fill-opacity:1" /><path
       d="M9077.5-17.4c-371.4-67.8-680.5-124.7-683.2-127.4c-19-16.3,56.9-260.3,81.3-260.3c19,0,344.3,54.2,723.9,122s694,122,699.5,122c2.7,0,0,32.5-8.1,75.9C9880-44.5,9869.2,15.1,9861,50.4c-8.2,35.3-29.8,59.6-59.6,56.9C9777,104.6,9451.6,47.7,9077.5-17.4z"
       id="path14"
       style="fill:#000000;fill-opacity:1" /><path
       d="M4165-2159.2l-116.6-10.8v-127.4v-127.4h900.1c908.2,0,1333.8-24.4,2095.7-122c222.3-29.8,409.4-46.1,414.8-40.7c8.1,5.4,19,65.1,24.4,130.1c16.3,138.3,37.9,127.4-344.3,181.7c-574.8,78.6-1106.1,111.1-1952,122C4688.3-2151.1,4227.4-2151.1,4165-2159.2z"
       id="path16"
       style="fill:#000000;fill-opacity:1" /><path
       d="M3031.8-2251.3c-103-13.6-271.1-38-368.7-54.2l-178.9-27.1l21.7-124.7c13.6-70.5,27.1-130.1,32.5-132.8c8.1-8.2,894.7,100.3,908.2,111.1c2.7,2.7-2.7,62.3-10.8,130.1c-19,124.7-19,127.4-116.6,124.7C3265-2227,3137.5-2237.8,3031.8-2251.3z"
       id="path18"
       style="fill:#000000;fill-opacity:1" /><path
       d="M3614.7-2986.1c-244-13.6-450-29.8-455.5-32.5c-5.4-5.4,0-70.5,8.1-141l19-132.9l314.5,21.7c176.2,13.6,764.5,24.4,1312.2,27.1l997.7,5.4v143.7v141l-873-2.7C4455.1-2959,3861.4-2972.5,3614.7-2986.1z"
       id="path20"
       style="fill:#000000;fill-opacity:1" /><path
       d="M6407.1-3132.5v-141l200.6-10.9l200.6-8.1l16.3,119.3c8.1,67.8,8.1,130.1-2.7,141c-13.6,10.9-111.1,24.4-216.9,29.8l-197.9,13.6V-3132.5z"
       id="path22"
       style="fill:#000000;fill-opacity:1" /><path
       d="M3967.1-3848.2v-135.6h1030.2h1030.2v135.6v135.6H4997.3H3967.1V-3848.2z"
       id="path24"
       style="fill:#000000;fill-opacity:1" /></g></g>
</svg>
